REM DIRINDEX 1\2\6,1\2\7,1\2\8,1\2\9,1\3\10,1\3\11,1\4\12,1\4\13,1\4\14,1\5\15,1\5\16,1\5\17
REM DIRNAME cjc029,folder01,folder02,folder03,folder04,folder05,folder06,folder07,folder08,folder09,folder10,folder11,folder12,folder13,folder14,folder15,folder16
TITLE ""
FILE "1400_2_sec01_0001_0016.mp3" MP3
  TRACK 01 AUDIO
    TITLE "0:"
    INDEX 01 00:00:00
  TRACK 02 AUDIO
    TITLE "12:cjc029_1562"
    INDEX 01 00:03:27
  TRACK 03 AUDIO
    TITLE "0:"
    INDEX 01 00:07:49
  TRACK 04 AUDIO
    TITLE "12:cjc029_1563"
    INDEX 01 00:08:26
  TRACK 05 AUDIO
    TITLE "0:"
    INDEX 01 00:09:61
  TRACK 06 AUDIO
    TITLE "12:cjc029_1564"
    INDEX 01 00:10:33
  TRACK 07 AUDIO
    TITLE "0:"
    INDEX 01 00:11:58
  TRACK 08 AUDIO
    TITLE "13:cjc029_1565"
    INDEX 01 00:12:58
  TRACK 09 AUDIO
    TITLE "0:"
    INDEX 01 00:13:61
  TRACK 10 AUDIO
    TITLE "14:cjc029_1566"
    INDEX 01 00:13:63
  TRACK 11 AUDIO
    TITLE "0:"
    INDEX 01 00:16:18
  TRACK 12 AUDIO
    TITLE "13:cjc029_1567"
    INDEX 01 00:17:00
  TRACK 13 AUDIO
    TITLE "0:"
    INDEX 01 00:18:13
  TRACK 14 AUDIO
    TITLE "14:cjc029_1568"
    INDEX 01 00:18:19
  TRACK 15 AUDIO
    TITLE "0:"
    INDEX 01 00:20:65
  TRACK 16 AUDIO
    TITLE "13:cjc029_1569"
    INDEX 01 00:21:47
  TRACK 17 AUDIO
    TITLE "0:"
    INDEX 01 00:22:60
  TRACK 18 AUDIO
    TITLE "14:cjc029_1570"
    INDEX 01 00:22:64
  TRACK 19 AUDIO
    TITLE "0:"
    INDEX 01 00:27:18
  TRACK 20 AUDIO
    TITLE "13:cjc029_1571"
    INDEX 01 00:27:73
  TRACK 21 AUDIO
    TITLE "0:"
    INDEX 01 00:29:15
  TRACK 22 AUDIO
    TITLE "14:cjc029_1572"
    INDEX 01 00:29:23
  TRACK 23 AUDIO
    TITLE "0:"
    INDEX 01 00:31:27
  TRACK 24 AUDIO
    TITLE "13:cjc029_1573"
    INDEX 01 00:32:07
  TRACK 25 AUDIO
    TITLE "0:"
    INDEX 01 00:33:11
  TRACK 26 AUDIO
    TITLE "14:cjc029_1574"
    INDEX 01 00:33:15
  TRACK 27 AUDIO
    TITLE "0:"
    INDEX 01 00:37:52
  TRACK 28 AUDIO
    TITLE "13:cjc029_1575"
    INDEX 01 00:38:35
  TRACK 29 AUDIO
    TITLE "0:"
    INDEX 01 00:39:41
  TRACK 30 AUDIO
    TITLE "14:cjc029_1576"
    INDEX 01 00:39:47
  TRACK 31 AUDIO
    TITLE "0:"
    INDEX 01 00:41:08
  TRACK 32 AUDIO
    TITLE "13:cjc029_1577"
    INDEX 01 00:41:63
  TRACK 33 AUDIO
    TITLE "0:"
    INDEX 01 00:43:03
  TRACK 34 AUDIO
    TITLE "14:cjc029_1578"
    INDEX 01 00:43:07
  TRACK 35 AUDIO
    TITLE "0:"
    INDEX 01 00:47:52
  TRACK 36 AUDIO
    TITLE "13:cjc029_1579"
    INDEX 01 00:48:38
  TRACK 37 AUDIO
    TITLE "0:"
    INDEX 01 00:49:51
  TRACK 38 AUDIO
    TITLE "14:cjc029_1580"
    INDEX 01 00:49:57
  TRACK 39 AUDIO
    TITLE "0:"
    INDEX 01 00:51:15
  TRACK 40 AUDIO
    TITLE "13:cjc029_1581"
    INDEX 01 00:51:73
  TRACK 41 AUDIO
    TITLE "0:"
    INDEX 01 00:53:15
  TRACK 42 AUDIO
    TITLE "14:cjc029_1582"
    INDEX 01 00:53:21
  TRACK 43 AUDIO
    TITLE "0:"
    INDEX 01 00:57:07
  TRACK 44 AUDIO
    TITLE "13:cjc029_1583"
    INDEX 01 00:57:62
  TRACK 45 AUDIO
    TITLE "0:"
    INDEX 01 00:59:04
  TRACK 46 AUDIO
    TITLE "14:cjc029_1584"
    INDEX 01 00:59:08
  TRACK 47 AUDIO
    TITLE "0:"
    INDEX 01 01:01:21
  TRACK 48 AUDIO
    TITLE "13:cjc029_1585"
    INDEX 01 01:02:05
  TRACK 49 AUDIO
    TITLE "0:"
    INDEX 01 01:03:16
  TRACK 50 AUDIO
    TITLE "14:cjc029_1586"
    INDEX 01 01:03:22
  TRACK 51 AUDIO
    TITLE "0:"
    INDEX 01 01:05:69
  TRACK 52 AUDIO
    TITLE "13:cjc029_1587"
    INDEX 01 01:06:49
  TRACK 53 AUDIO
    TITLE "0:"
    INDEX 01 01:07:64
  TRACK 54 AUDIO
    TITLE "14:cjc029_1588"
    INDEX 01 01:07:70
  TRACK 55 AUDIO
    TITLE "0:"
    INDEX 01 01:11:27
  TRACK 56 AUDIO
    TITLE "13:cjc029_1589"
    INDEX 01 01:12:07
  TRACK 57 AUDIO
    TITLE "0:"
    INDEX 01 01:13:16
  TRACK 58 AUDIO
    TITLE "14:cjc029_1590"
    INDEX 01 01:13:18
  TRACK 59 AUDIO
    TITLE "0:"
    INDEX 01 01:14:17
  TRACK 60 AUDIO
    TITLE "13:cjc029_1591"
    INDEX 01 01:14:72
  TRACK 61 AUDIO
    TITLE "0:"
    INDEX 01 01:16:14
  TRACK 62 AUDIO
    TITLE "14:cjc029_1592"
    INDEX 01 01:16:16
  TRACK 63 AUDIO
    TITLE "0:"
    INDEX 01 01:17:18
  TRACK 64 AUDIO
    TITLE "13:cjc029_1593"
    INDEX 01 01:18:00
  TRACK 65 AUDIO
    TITLE "0:"
    INDEX 01 01:19:19
  TRACK 66 AUDIO
    TITLE "14:cjc029_1594"
    INDEX 01 01:19:21
  TRACK 67 AUDIO
    TITLE "0:"
    INDEX 01 01:21:70
  TRACK 68 AUDIO
    TITLE "13:cjc029_1595"
    INDEX 01 01:22:54
  TRACK 69 AUDIO
    TITLE "0:"
    INDEX 01 01:24:00
  TRACK 70 AUDIO
    TITLE "14:cjc029_1596"
    INDEX 01 01:24:06
  TRACK 71 AUDIO
    TITLE "0:"
    INDEX 01 01:25:41
